HIERARCHY
ROOT Hips
{
	OFFSET	0.00	0.00	0.00
	CHANNELS 6 Xposition Yposition Zposition Zrotation Xrotation Yrotation
	JOINT LeftUpperLeg
	{
		OFFSET	-0.060319	-0.072984	 0.002079
		CHANNELS 3 Zrotation Xrotation Yrotation
		JOINT LeftLowerLeg
		{
			OFFSET	 0.351798	-0.005146	-0.008011
			CHANNELS 3 Zrotation Xrotation Yrotation
			JOINT LeftFoot
			{
				OFFSET	 0.378666	 0.003778	 0.003828
				CHANNELS 3 Zrotation Xrotation Yrotation
				JOINT LeftToes
				{
					OFFSET	 0.084296	 0.003922	 0.047710
					CHANNELS 3 Zrotation Xrotation Yrotation
					End Site
					{
						OFFSET	 0.084296	 0.003922	 0.047710
					}
				}
			}
		}
	}
	JOINT RightUpperLeg
	{
		OFFSET	-0.060836	 0.072553	 0.002079
		CHANNELS 3 Zrotation Xrotation Yrotation
		JOINT RightLowerLeg
		{
			OFFSET	 0.351363	 0.018233	-0.008011
			CHANNELS 3 Zrotation Xrotation Yrotation
			JOINT RightFoot
			{
				OFFSET	 0.378545	 0.010315	 0.003824
				CHANNELS 3 Zrotation Xrotation Yrotation
				JOINT RightToes
				{
					OFFSET	 0.084392	-0.002027	 0.047660
					CHANNELS 3 Zrotation Xrotation Yrotation
					End Site
					{
						OFFSET	 0.084392	-0.002027	 0.047660
					}
				}
			}
		}
	}
	JOINT Character1_Spine
	{
		OFFSET	 0.022713	 0.000080	 0.008181
		CHANNELS 3 Zrotation Xrotation Yrotation
		JOINT Spine
		{
			OFFSET	 0.091343	 0.000000	 0.001755
			CHANNELS 3 Zrotation Xrotation Yrotation
			JOINT Chest
			{
				OFFSET	 0.087667	 0.000000	-0.000304
				CHANNELS 3 Zrotation Xrotation Yrotation
				JOINT LeftShoulder
				{
					OFFSET	 0.122367	-0.042227	-0.001395
					CHANNELS 3 Zrotation Xrotation Yrotation
					JOINT LeftUpperArm
					{
						OFFSET	 0.055437	-0.000001	 0.000000
						CHANNELS 3 Zrotation Xrotation Yrotation
						JOINT LeftLowerArm
						{
							OFFSET	 0.233777	-0.000011	 0.000017
							CHANNELS 3 Zrotation Xrotation Yrotation
							JOINT LeftHand
							{
								OFFSET	 0.162482	 0.000000	-0.000001
								CHANNELS 3 Zrotation Xrotation Yrotation
								JOINT LeftIndexProximal
								{
									OFFSET	 0.080750	 0.001428	 0.025713
									CHANNELS 3 Zrotation Xrotation Yrotation
									JOINT LeftIndexIntermediate
									{
										OFFSET	 0.024260	 0.001187	 0.002507
										CHANNELS 3 Zrotation Xrotation Yrotation
										JOINT LeftIndexDistal
										{
											OFFSET	 0.016097	 0.000458	 0.000118
											CHANNELS 3 Zrotation Xrotation Yrotation
											End Site
											{
												OFFSET	 0.016097	 0.000458	 0.000118
											}
										}
									}
								}
								JOINT LeftMiddleProximal
								{
									OFFSET	 0.080696	 0.006021	 0.005822
									CHANNELS 3 Zrotation Xrotation Yrotation
									JOINT LeftMiddleIntermediate
									{
										OFFSET	 0.025063	-0.003793	 0.001482
										CHANNELS 3 Zrotation Xrotation Yrotation
										JOINT LeftMiddleDistal
										{
											OFFSET	 0.019431	-0.000162	-0.000068
											CHANNELS 3 Zrotation Xrotation Yrotation
											End Site
											{
												OFFSET	 0.019431	-0.000162	-0.000068
											}
										}
									}
								}
								JOINT LeftLittleProximal
								{
									OFFSET	 0.065753	 0.002283	-0.027836
									CHANNELS 3 Zrotation Xrotation Yrotation
									JOINT LeftLittleIntermediate
									{
										OFFSET	 0.018097	 0.000014	 0.000133
										CHANNELS 3 Zrotation Xrotation Yrotation
										JOINT LeftLittleDistal
										{
											OFFSET	 0.013911	-0.000247	 0.000003
											CHANNELS 3 Zrotation Xrotation Yrotation
											End Site
											{
												OFFSET	 0.013911	-0.000247	 0.000003
											}
										}
									}
								}
								JOINT LeftRingProximal
								{
									OFFSET	 0.076793	 0.006246	-0.012626
									CHANNELS 3 Zrotation Xrotation Yrotation
									JOINT LeftRingIntermediate
									{
										OFFSET	 0.023683	-0.001098	-0.000754
										CHANNELS 3 Zrotation Xrotation Yrotation
										JOINT LeftRingDistal
										{
											OFFSET	 0.015907	 0.000860	 0.000167
											CHANNELS 3 Zrotation Xrotation Yrotation
											End Site
											{
												OFFSET	 0.015907	 0.000860	 0.000167
											}
										}
									}
								}
								JOINT LeftThumbProximal
								{
									OFFSET	 0.024761	-0.014236	 0.018266
									CHANNELS 3 Zrotation Xrotation Yrotation
									JOINT LeftThumbIntermediate
									{
										OFFSET	 0.032146	-0.001523	 0.001986
										CHANNELS 3 Zrotation Xrotation Yrotation
										JOINT LeftThumbDistal
										{
											OFFSET	 0.017566	-0.000085	-0.001004
											CHANNELS 3 Zrotation Xrotation Yrotation
											End Site
											{
												OFFSET	 0.017566	-0.000085	-0.001004
											}
										}
									}
								}
							}
						}
					}
				}
				JOINT Neck
				{
					OFFSET	 0.156851	-0.000286	 0.008298
					CHANNELS 3 Zrotation Xrotation Yrotation
					JOINT Head
					{
						OFFSET	 0.078083	 0.000000	-0.005534
						CHANNELS 3 Zrotation Xrotation Yrotation
						End Site
						{
							OFFSET	 0.078083	 0.000000	-0.005534
						}
					}
				}
				JOINT RightShoulder
				{
					OFFSET	 0.122455	 0.041994	-0.000150
					CHANNELS 3 Zrotation Xrotation Yrotation
					JOINT RightUpperArm
					{
						OFFSET	 0.055437	 0.000001	 0.000000
						CHANNELS 3 Zrotation Xrotation Yrotation
						JOINT RightLowerArm
						{
							OFFSET	 0.233779	 0.000012	 0.000017
							CHANNELS 3 Zrotation Xrotation Yrotation
							JOINT RightHand
							{
								OFFSET	 0.162480	-0.000002	-0.000001
								CHANNELS 3 Zrotation Xrotation Yrotation
								JOINT RightIndexProximal
								{
									OFFSET	 0.077459	-0.023877	 0.024774
									CHANNELS 3 Zrotation Xrotation Yrotation
									JOINT RightIndexIntermediate
									{
										OFFSET	 0.024233	 0.002008	-0.002230
										CHANNELS 3 Zrotation Xrotation Yrotation
										JOINT RightIndexDistal
										{
											OFFSET	 0.015886	 0.002643	 0.000001
											CHANNELS 3 Zrotation Xrotation Yrotation
											End Site
											{
												OFFSET	 0.015886	 0.002643	 0.000001
											}
										}
									}
								}
								JOINT RightMiddleProximal
								{
									OFFSET	 0.077341	-0.024111	 0.004360
									CHANNELS 3 Zrotation Xrotation Yrotation
									JOINT RightMiddleIntermediate
									{
										OFFSET	 0.025355	-0.001169	-0.000680
										CHANNELS 3 Zrotation Xrotation Yrotation
										JOINT RightMiddleDistal
										{
											OFFSET	 0.019416	 0.000705	-0.000417
											CHANNELS 3 Zrotation Xrotation Yrotation
											End Site
											{
												OFFSET	 0.019416	 0.000705	-0.000417
											}
										}
									}
								}
								JOINT RightLittleProximal
								{
									OFFSET	 0.065019	-0.010365	-0.027722
									CHANNELS 3 Zrotation Xrotation Yrotation
									JOINT RightLittleIntermediate
									{
										OFFSET	 0.018098	 0.000052	-0.000144
										CHANNELS 3 Zrotation Xrotation Yrotation
										JOINT RightLittleDistal
										{
											OFFSET	 0.013886	-0.000828	 0.000267
											CHANNELS 3 Zrotation Xrotation Yrotation
											End Site
											{
												OFFSET	 0.013886	-0.000828	 0.000267
											}
										}
									}
								}
								JOINT RightRingProximal
								{
									OFFSET	 0.074304	-0.019655	-0.013711
									CHANNELS 3 Zrotation Xrotation Yrotation
									JOINT RightRingIntermediate
									{
										OFFSET	 0.023458	 0.003508	-0.000008
										CHANNELS 3 Zrotation Xrotation Yrotation
										JOINT RightRingDistal
										{
											OFFSET	 0.015893	-0.000379	-0.001033
											CHANNELS 3 Zrotation Xrotation Yrotation
											End Site
											{
												OFFSET	 0.015893	-0.000379	-0.001033
											}
										}
									}
								}
								JOINT RightThumbProximal
								{
									OFFSET	 0.026339	 0.004527	 0.020861
									CHANNELS 3 Zrotation Xrotation Yrotation
									JOINT RightThumbIntermediate
									{
										OFFSET	 0.032030	-0.000602	 0.001128
										CHANNELS 3 Zrotation Xrotation Yrotation
										JOINT RightThumbDistal
										{
											OFFSET	 0.017586	-0.000153	 0.000511
											CHANNELS 3 Zrotation Xrotation Yrotation
											End Site
											{
												OFFSET	 0.017586	-0.000153	 0.000511
											}
										}
									}
								}
							}
						}
					}
				}
			}
		}
	}
}
MOTION
Frames:    4
Frame Time: 0.01666667
 0.015482	 0.053979	-2.304413	 89.848160	 0.869880	-116.260400	-177.683000	 7.396472	-84.093540	 5.215790	 7.505900	 104.680800	-12.946080	 0.346990	-60.307550	-3.304201	-0.218249	-77.049610	 174.964500	-2.414527	-91.930090	 4.326220	-9.785026	 100.679800	 10.482320	-4.901110	-49.206010	 0.000825	-0.006826	-81.937030	 0.203542	 0.000000	-4.902169	 0.285838	 1.572325	-13.260210	 1.145282	-0.862117	-9.634483	-92.919460	 18.029550	 1.691537	-66.763470	-2.727753	 26.977570	-4.831707	-15.019830	-69.336540	 6.650102	-19.540230	-23.031800	-2.686204	 11.479840	 13.861820	-17.217620	-0.385384	-0.516139	-17.353250	-0.466271	 0.628652	-3.827426	 8.297561	 8.630901	-31.067570	-2.331627	 0.982474	-26.363780	-2.391348	 7.948745	-15.798990	-14.875250	 0.716041	-9.541347	 4.340984	 7.344803	-34.314020	-2.294963	 15.594270	-12.935940	-9.362665	 4.853736	-33.381640	-0.543339	 10.437340	-20.816160	-5.045164	 7.517106	 111.737300	 49.854530	-126.324500	-19.032320	 0.543783	-9.628662	-25.348610	-0.976140	-0.758762	-3.784688	-1.949028	-34.522290	-1.818002	-0.783912	-2.943007	 89.662120	-18.084890	-0.891729	 69.767900	 2.552410	 29.930630	 3.511439	 12.465870	-85.050850	-1.623263	 3.419057	-5.920189	-174.971600	-9.551276	 171.529100	-31.897800	-0.764977	-3.927547	-3.656612	-3.353684	-1.373839	 176.692200	-7.544625	 175.928500	-41.573090	-0.978686	-7.134785	-52.018820	 1.490371	-5.718518	-167.027800	-28.280210	-175.112900	-9.063137	 0.683540	-8.047282	-38.462170	 5.871889	-21.148240	-158.412800	-25.410060	-172.809100	-14.724380	-1.090110	-12.547330	-43.820570	 3.113056	-12.956610	 49.688140	 53.766530	-56.531450	-20.810550	 3.803955	 8.623039	-30.770470	-2.362315	 9.390634
 0.015522	 0.044215	-2.284512	 89.940240	 0.862841	-113.650100	-177.943700	 6.873597	-78.469490	 5.002198	 6.531626	 101.573000	-12.348320	 0.047305	-57.245210	-3.354901	 0.015147	-79.614370	 174.985800	-1.273723	-86.112920	 4.750744	-8.518040	 97.827220	 8.993718	-5.030479	-46.658550	 0.000419	-0.006871	-85.374870	 0.203542	 0.000000	-4.902169	 0.400341	 1.311628	-11.459570	 1.152976	-0.862706	-8.422170	-92.919490	 18.029540	 1.691523	-67.454340	-2.469593	 28.277400	-4.727658	-15.125990	-62.066120	 6.765164	-19.718870	-22.373230	-2.686177	 11.479820	 13.861780	-17.217650	-0.385384	-0.516139	-17.353220	-0.466271	 0.628653	-3.827371	 8.297558	 8.630894	-31.067500	-2.331623	 0.982464	-26.363810	-2.391351	 7.948751	-15.798910	-14.875240	 0.716022	-9.541392	 4.340974	 7.344828	-34.314000	-2.294957	 15.594260	-12.935890	-9.362664	 4.853706	-33.381660	-0.543345	 10.437350	-20.816110	-5.045158	 7.517093	 111.737300	 49.854530	-126.324500	-19.032320	 0.543783	-9.628662	-25.348610	-0.976140	-0.758762	-3.341630	-2.023773	-35.464580	-1.709456	-0.662855	-4.030059	 89.662160	-18.084890	-0.891721	 70.358460	 2.927547	 32.369260	 3.497156	 12.458260	-81.184510	-1.494687	 3.479063	-5.274393	-174.971600	-9.551279	 171.529100	-31.897830	-0.764976	-3.927548	-3.656612	-3.353684	-1.373839	 176.692200	-7.544624	 175.928500	-41.572980	-0.978695	-7.134769	-52.018770	 1.490360	-5.718516	-167.027800	-28.280220	-175.112900	-9.063082	 0.683540	-8.047253	-38.462200	 5.871903	-21.148260	-158.412800	-25.410060	-172.809100	-14.724360	-1.090118	-12.547320	-43.820590	 3.113060	-12.956610	 49.688180	 53.766530	-56.531510	-20.810560	 3.803954	 8.623044	-30.770450	-2.362313	 9.390628
 0.015579	 0.018294	-2.240221	 89.926240	 0.869469	-105.694800	-178.747500	 6.557639	-62.126600	 5.059793	 4.852148	 93.289700	-11.422110	-0.334601	-56.369790	-3.360258	 0.043179	-79.920800	 174.847900	-1.181093	-69.885670	 4.632660	-7.370153	 90.521690	 7.232700	-4.873243	-46.742620	 0.000370	-0.006875	-85.785550	 0.203542	 0.000000	-4.902169	 0.543339	 0.765981	-4.734117	 1.223084	-0.865085	-2.835433	-92.919460	 18.029540	 1.691560	-67.210370	-2.442078	 28.169800	-4.761349	-15.371540	-60.015010	 6.795789	-19.801160	-21.490850	-2.686256	 11.479840	 13.861860	-17.217650	-0.385384	-0.516139	-17.353190	-0.466271	 0.628653	-3.827388	 8.297565	 8.630934	-31.067430	-2.331621	 0.982455	-26.363780	-2.391348	 7.948745	-15.798860	-14.875240	 0.715967	-9.541444	 4.340963	 7.344858	-34.313970	-2.294947	 15.594240	-12.935750	-9.362638	 4.853673	-33.381680	-0.543357	 10.437360	-20.816120	-5.045159	 7.517096	 111.737200	 49.854510	-126.324400	-19.032360	 0.543785	-9.628671	-25.348610	-0.976140	-0.758762	-2.207717	-1.601923	-30.838100	-1.438796	 0.366623	 1.028317	 89.662150	-18.084890	-0.891744	 70.292270	 2.601786	 32.481100	 3.619942	 12.148920	-80.114640	-1.261940	 3.681999	-4.279019	-174.971500	-9.551274	 171.529100	-31.897650	-0.764994	-3.927526	-3.656612	-3.353684	-1.373839	 176.692300	-7.544617	 175.928500	-41.572830	-0.978712	-7.134749	-52.018820	 1.490371	-5.718518	-167.027800	-28.280200	-175.113100	-9.063016	 0.683528	-8.047216	-38.462150	 5.871881	-21.148230	-158.412700	-25.410090	-172.809200	-14.724410	-1.090105	-12.547340	-43.820420	 3.113016	-12.956550	 49.688110	 53.766540	-56.531340	-20.810610	 3.803947	 8.623067	-30.770490	-2.362319	 9.390642
 0.015629	-0.018892	-2.174486	 89.886690	 0.874903	-95.363300	-179.725300	 6.106427	-38.923920	 5.019403	 2.610821	 77.608990	-10.036520	-1.084238	-54.048910	-3.359488	 0.039096	-79.876180	 174.654000	-1.482815	-46.731820	 3.787840	-6.405319	 76.116700	 5.490523	-5.027020	-45.713430	 0.000377	-0.006874	-85.725780	 0.203542	 0.000000	-4.902169	 0.569268	-0.059791	 4.236833	 1.349139	-0.855564	 5.692389	-92.919430	 18.029550	 1.691552	-66.828660	-2.172517	 26.130690	-4.693214	-15.391370	-60.982460	 7.548630	-19.641820	-19.587540	-2.686296	 11.479850	 13.861870	-17.217630	-0.385384	-0.516139	-17.353250	-0.466271	 0.628652	-3.827463	 8.297565	 8.630929	-31.067550	-2.331627	 0.982471	-26.363620	-2.391336	 7.948715	-15.798840	-14.875250	 0.715914	-9.541347	 4.340984	 7.344803	-34.314080	-2.294978	 15.594300	-12.935770	-9.362647	 4.853630	-33.381760	-0.543372	 10.437390	-20.816120	-5.045159	 7.517096	 111.737200	 49.854490	-126.324400	-19.032370	 0.543786	-9.628670	-25.348660	-0.976139	-0.758770	-0.727549	-0.899048	-22.960480	-1.286098	 1.535642	 6.897644	 89.662080	-18.084890	-0.891764	 69.873640	 2.218268	 29.976200	 3.541870	 12.365570	-80.574970	-1.418773	 3.753917	-2.187745	-174.971500	-9.551286	 171.529100	-31.897530	-0.765005	-3.927514	-3.656657	-3.353679	-1.373842	 176.692200	-7.544624	 175.928500	-41.572820	-0.978714	-7.134747	-52.018840	 1.490373	-5.718519	-167.027800	-28.280200	-175.113100	-9.063082	 0.683540	-8.047253	-38.462270	 5.871929	-21.148300	-158.412800	-25.410090	-172.809300	-14.724450	-1.090102	-12.547350	-43.820590	 3.113061	-12.956610	 49.688070	 53.766550	-56.531280	-20.810570	 3.803953	 8.623048	-30.770570	-2.362339	 9.390670
